<?xml version="1.0" encoding="UTF-8" standalone="no"?>
<svg width="300" xmlns="http://www.w3.org/2000/svg" height="480">
 <defs>
  <linearGradient id="svg_5" y2="1">
   <stop stop-color="#999" offset="0"/>
   <stop offset="1"/>
  </linearGradient>
  <linearGradient id="svg_7" y2="1">
   <stop stop-color="#ccc" offset="0"/>
   <stop offset="1"/>
  </linearGradient>
  <linearGradient id="svg_4" y2="1">
   <stop stop-color="#7f7f7f" offset="0"/>
   <stop stop-color="#fff" offset="1"/>
  </linearGradient>
  <linearGradient id="svg_1" y2="1">
   <stop stop-color="#ccc" offset="0"/>
   <stop stop-color="#fff" offset="1"/>
  </linearGradient>
  <linearGradient id="svg_2" y2="1">
   <stop stop-color="#b2b2b2" offset="0"/>
   <stop stop-color="#fff" offset="1"/>
  </linearGradient>
 </defs>
 <g fill-rule="evenodd">
  <g stroke-width=".036" stroke-miterlimit="10" stroke="#000">
   <path id="path15" d="m10.512 464.75c-0.648 3.529-0.9 6.877-0.9 10.188-0.036 3.277-1.08 6.553 0.9 9.289 1.872 2.592 5.184 4.752 10.908 6.336 5.688 1.477 16.308 2.664 23.112 2.736 6.732 0 12.42-0.828 17.208-2.484h187.02c3.133 1.297 6.768 2.195 10.908 2.699 4.104 0.39603 8.207 0.57602 13.824 0 5.615-0.71899 15.299-1.223 19.475-3.852 3.926-2.736 3.816-7.164 4.537-12.023 0.72101-4.859 0.64801-10.477-0.21701-16.992h-282.46c-1.44 1.366-2.88 2.735-4.32 4.103z"/>
   <path id="path17" d="m146.95 4.919c-11.484-0.036-22.176 1.152-32.724 3.636-10.548 2.52-19.836 5.976-29.916 11.196-10.152 5.22-20.772 11.448-30.24 19.872-9.432 8.424-18.972 18.432-25.992 30.204s-12.492 26.46-15.66 39.708-2.628 28.044-3.096 39.168c-0.468 11.088-0.36 19.872 0.288 26.856v220.28 47.018h280.01v-47.018-220.28c0.64801-6.984 0.289-26.856 0.289-26.856s0.035004-25.92-3.096-39.168c-3.168-13.248-8.678-27.936-15.66-39.708-7.021-11.772-16.561-21.78-26.029-30.204-9.432-8.424-20.088-14.652-30.203-19.872-10.117-5.22-19.404-8.676-29.916-11.196-10.549-2.484-21.275-3.672-32.725-3.636h-5.327z"/>
  </g>
  <path id="path19" fill="#ff007f" d="m146.88 6.323c-11.376-0.036-21.996 1.152-32.436 3.636s-19.62 5.94-29.664 11.124c-10.008 5.184-20.556 11.376-29.916 19.764-9.396 8.388-18.828 18.36-25.812 30.06-6.912 11.7-12.384 26.316-15.516 39.528-3.096 13.176-2.556 27.936-3.06 38.988-0.432 11.016-0.36 19.764 0.288 26.712v219.24 46.764h277.52c-1.367-88.596-0.035004-177.44 0-266 0.61298-6.948 0.72098-15.696 0.25198-26.712-0.46698-11.052 0.071991-25.812-3.023-38.988-3.168-13.212-8.604-27.828-15.553-39.528-6.947-11.7-16.416-21.672-25.775-30.06s-19.908-14.58-29.951-19.764c-10.008-5.184-19.225-8.64-29.664-11.124-10.441-2.484-21.061-3.672-32.438-3.636h-5.255v-0.00107z"/>
  <path id="path21" d="m147.2 24.503c-10.08-0.036001-19.476 1.08-28.692 3.456-9.252 2.376-17.388 5.652-26.244 10.62-8.892 4.968-18.18 10.908-26.496 18.864-8.28 8.028-16.632 17.568-22.788 28.728s-10.98 25.128-13.752 37.764c-2.736 12.564-2.268 26.64-2.7 37.188-0.396 10.548-0.324 18.9 0.252 25.524v209.34 44.676h245.48s-0.035004-169.34 0-254.02c0.54098-6.624 0.64798-14.976 0.21698-25.524-0.396-10.548 0.072021-24.624-2.701-37.188-2.771-12.636-7.596-26.604-13.715-37.764-6.156-11.16-14.545-20.7-22.824-28.728-8.281-7.956-17.604-13.896-26.461-18.864-8.855-4.968-17.027-8.244-26.244-10.62-9.252-2.376-18.646-3.492-28.691-3.456h-4.645z" stroke="#000" stroke-miterlimit="10" stroke-width=".036"/>
  <path id="path23" fill="#0f9fe9" d="m147.24 26.447c-9.9-0.036001-19.152 1.08-28.26 3.42-9.072 2.376-17.1 5.652-25.812 10.548-8.712 4.932-17.892 10.8-26.064 18.72-8.136 7.956-16.38 17.424-22.428 28.512s-10.8 24.912-13.536 37.44c-2.7 12.492-2.232 26.424-2.628 36.9-0.432 10.44-0.324 18.756 0.216 25.308v207.68 44.279h241.56v-251.96c0.57602-6.552 0.64801-14.868 0.25201-25.308-0.43201-10.476 0.036987-24.408-2.664-36.9-2.734-12.528-7.451-26.352-13.5-37.44-6.047-11.088-14.291-20.556-22.463-28.512-8.137-7.92-17.316-13.788-26.029-18.72-8.748-4.896-16.738-8.172-25.848-10.548-9.072-2.34-18.324-3.456-28.223-3.42h-4.573z"/>
  <path id="path25" d="m147.56 45.671c-8.424-0.036003-16.308 1.152-24.048 3.564-7.74 2.448-18.684 5.22-26.1 10.296-7.452 5.112-15.48 11.988-22.428 20.231-6.948 8.244-13.356 17.316-18.504 28.8-5.148 11.52-7.164 26.316-9.468 39.276-2.34 12.96-0.288 27.612-0.648 38.448s-0.288 19.44 0.216 26.28v215.46 45.936h205.88v-261.4c0.46899-6.84 0.541-15.444 0.217-26.28-0.35899-10.836 1.225-26.604-1.08-39.564-2.34-12.996-3.672-26.424-8.783-37.908-5.186-11.52-14.113-22.176-21.061-30.42s-13.824-13.752-21.275-18.864c-7.416-5.076-17.209-7.848-24.949-10.296-7.74-2.412-15.623-3.6-24.047-3.564h-3.925z" stroke="#000" stroke-miterlimit="10" stroke-width=".036"/>
  <path id="path27" fill="#662f00" d="m147.6 48.155c-8.28-0.035999-16.02 1.116-23.616 3.6-7.596 2.448-15.12 3.528-22.428 8.676s-16.056 10.62-22.896 18.936c-6.804 8.316-15.264 20.016-20.34 31.608-5.04 11.592-7.164 27.792-9.468 40.86-2.268 13.068-0.18 27.144-0.54 38.088-0.324 10.908-0.252 19.584 0.216 26.46v217.22 46.332h202v-263.56c0.46899-6.876 0.541-15.552 0.17999-26.46-0.32399-10.944 1.512-23.652-0.71899-36.72-2.305-13.068-4.213-28.764-9.252-40.392-5.076-11.556-12.168-22.14-18.973-30.456-6.805-8.28-14.184-14.94-21.492-20.088s-17.641-8.064-25.236-10.512c-7.596-2.484-15.336-3.636-23.58-3.6h-3.852z"/>
  <g stroke-width=".036" stroke-miterlimit="10" stroke="#000">
   <path id="path29" d="m149.51 52.475c-5.76 2.232-10.116 3.456-13.212 3.816-3.06 0.216-4.14-0.216-5.184-1.836-1.224-1.692-1.044-5.436-1.836-7.884-0.89999-2.484-1.476-3.816-3.24-6.768-1.836-3.06-5.796-8.136-7.596-10.944-2.016-2.844-3.384-4.392-3.672-5.904-0.18-1.548 1.224-2.628 2.268-3.24 0.89999-0.684 1.98-0.828 3.24-0.576-2.376-4.464-4.86-7.092-7.596-8.28-2.7-1.116-5.328 0.144-8.856 1.404-3.672 1.152-9.612 3.528-13.104 5.328-3.564 1.62-6.228 3.168-7.992 4.644-0.53999-2.628-0.53999-4.788-0.28799-6.336 0.18-1.692 0.36-1.98 1.944-3.24 1.656-1.368 4.464-2.772 7.596-4.356 3.024-1.764 7.092-3.636 10.404-5.04 3.204-1.368 6.12-2.268 9.036-2.7 2.916-0.576 6.192-0.792 8.28-0.252 2.016 0.54 3.24 1.656 3.816 3.492 2.484-1.044 5.616-1.836 9.252-2.376 3.708-0.576 9.036-0.9 12.672-0.972 3.456-0.144 4.752-0.108 8.316 0.108 3.455 0.036 8.783 0.324 12.492 0.864 3.6 0.504 6.695 1.296 9.287 2.376 0.541-1.836 1.764-2.952 3.816-3.492 2.088-0.54 5.221-0.324 8.279 0.252 2.881 0.432 5.652 1.332 9 2.7 3.24 1.404 7.309 3.276 10.404 5.04 3.061 1.584 5.869 2.988 7.596 4.356 1.549 1.26 1.693 1.548 1.98 3.24 0.217 1.548 0.217 3.708-0.28702 6.336-1.873-1.476-4.5-3.024-8.029-4.644-3.635-1.8-9.432-4.176-13.066-5.328-3.637-1.26-6.266-2.52-8.857-1.404-2.771 1.188-5.256 3.816-7.596 8.28 1.225-0.252 2.305-0.108 3.24 0.576 1.008 0.612 2.268 1.692 2.232 3.24-0.32399 1.512-1.729 3.06-3.637 5.904-1.908 2.808-5.832 7.884-7.596 10.944-1.871 2.952-2.447 4.284-3.24 6.768-0.90001 2.448-0.72101 6.192-1.836 7.884-1.152 1.62-2.232 2.052-5.184 1.836-3.131-0.36-7.451-1.584-13.246-3.816z"/>
   <path id="path31" fill="#bfbfbf" d="m148.1 51.935c-2.592 0.72-4.932 1.368-7.02 1.944-2.196 0.504-4.248 1.44-5.76 1.404-1.584-0.144-2.52-0.612-3.24-1.944-0.864-1.44-0.68401-4.248-1.404-6.48-0.79199-2.34-1.728-5.328-2.952-7.452-1.26-2.304-2.664-3.528-4.356-5.904-1.836-2.448-4.968-6.516-6.048-8.46s-1.08-2.7-0.432-3.384c0.54-0.828 1.8-1.296 3.78-1.404 0.72 2.052 1.656 3.6 2.412 4.788 0.756 1.116 2.52 2.7 2.376 1.98-0.36-0.9-2.592-4.86-3.78-7.02-1.152-2.196-1.764-4.212-3.096-6.048-1.584-1.944-3.42-4.428-5.508-5.076-2.16-0.684-3.672-0.18-6.876 0.972-3.276 0.9-8.604 3.24-12.384 5.076-3.924 1.8-7.308 3.672-10.548 5.76-0.396-1.8-0.396-3.348-0.144-4.5 0.108-1.224 0.108-1.512 1.548-2.664 1.512-1.188 4.32-2.916 7.164-4.356 2.664-1.476 6.084-3.204 8.892-4.356 2.736-1.296 4.896-2.196 7.452-2.844 2.448-0.72 5.436-1.044 7.452-1.116 1.836-0.036 3.06 0.108 4.068 0.576 1.008 0.288 0.972 0.252 1.98 1.404 0.936 1.08 2.196 3.096 3.492 5.076 1.152 1.979 2.232 4.176 3.528 6.444 1.224 2.196 2.628 4.356 4.068 6.624 2.88-0.972 5.364-1.44 7.452-1.548 2.052-0.18 4.068 0 4.932 0.828 0.828 0.864 0.79201 2.376-0.396 4.104-1.476 1.656-6.192 3.528-7.74 5.472-1.62 1.8-1.44 3.348-1.404 5.616-0.035995 2.124 0.252 5.76 1.404 7.452 1.08 1.584 3.132 2.016 5.04 2.268 1.872 0.108 3.888-0.216 6.192-1.26h2.556c2.269 1.044 4.285 1.368 6.193 1.26 1.836-0.252 3.887-0.684 5.039-2.268 1.045-1.692 1.332-5.328 1.404-7.452-0.072006-2.269 0.107-3.816-1.404-5.616-1.619-1.944-6.371-3.816-7.74-5.472-1.296-1.728-1.296-3.24-0.39601-4.104 0.791-0.828 2.699-1.008 4.895-0.828 2.018 0.108 4.5 0.576 7.453 1.548 1.439-2.268 2.807-4.428 4.104-6.624 1.26-2.268 2.195-4.464 3.492-6.444 1.152-1.98 2.557-3.996 3.527-5.076 0.89999-1.152 0.86499-1.116 1.98-1.404 0.90001-0.468 2.16-0.612 4.068-0.576 1.908 0.072 4.896 0.396 7.451 1.116 2.412 0.648 4.717 1.548 7.453 2.844 2.771 1.152 6.047 2.88 8.855 4.356 2.699 1.44 5.652 3.168 7.199 4.356 1.369 1.152 1.332 1.44 1.549 2.664 0.21701 1.152 0.21701 2.7-0.14499 4.5-3.275-2.088-6.66-3.96-10.547-5.76-3.889-1.836-9.18-4.176-12.385-5.076-3.24-1.152-4.896-1.656-6.912-0.972-2.16 0.648-4.031 3.132-5.473 5.076-1.439 1.836-2.016 3.852-3.096 6.048-1.295 2.16-3.527 6.12-3.779 7.02-0.252 0.72 1.512-0.864 2.375-1.98 0.758-1.188 1.549-2.736 2.377-4.788 2.016 0.108 3.24 0.576 3.816 1.404 0.53902 0.684 0.53902 1.44-0.43198 3.384-1.189 1.944-4.32 6.012-6.049 8.46-1.801 2.376-3.203 3.6-4.355 5.904-1.26 2.124-2.197 5.112-2.953 7.452-0.828 2.232-0.646 5.04-1.404 6.48-0.826 1.332-1.764 1.8-3.238 1.944-1.621 0.035999-3.637-0.9-5.762-1.404-2.088-0.576-4.57-1.224-7.055-1.944h-2.805z"/>
  </g>
  <path id="path33" d="m90.72 11.111c2.664-1.764 9.252-5.256 13.356-6.732 4.068-1.584 7.596-2.34 10.44-2.412 2.628-0.216 3.528-0.072 5.472 1.692 1.836 1.8 5.796 7.992 6.048 8.856 0.216 0.612-2.952-3.06-4.644-4.212-1.836-1.296-3.024-2.556-6.048-2.52-3.168 0.072-7.848 1.656-12.384 3.24-4.716 1.512-12.6 5.328-14.76 5.76-2.088 0.252-0.18-1.944 2.52-3.672z"/>
  <path id="path35" d="m121.25 13.667c-0.432-0.072 2.268 4.212 3.816 7.02 1.476 2.592 3.06 7.992 5.328 9 2.268 0.9 6.012-1.98 8.172-3.096 1.98-1.152 4.86-3.348 3.924-3.384-1.188-0.108-7.38 3.24-9.972 2.952-2.556-0.36-3.6-3.06-5.364-5.04-1.944-2.196-5.58-7.416-5.904-7.452z"/>
  <path id="path37" d="m133.63 46.715c-0.68401-0.144-0.072006 2.232 0.57599 3.24 0.43201 0.936 0.86401 2.52 2.808 2.52 2.016-0.108 8.676-2.34 9-2.664 0.035995-0.468-5.832 1.116-7.884 0.576-2.052-0.612-3.924-3.6-4.5-3.672z"/>
  <path id="path39" d="m208.62 11.111c-2.736-1.764-9.359-5.256-13.355-6.732-4.141-1.584-7.703-2.34-10.404-2.412-2.736-0.216-3.6-0.072-5.508 1.692-1.943 1.8-5.904 7.992-6.049 8.856-0.32199 0.612 2.846-3.06 4.645-4.212 1.729-1.296 2.916-2.556 6.049-2.52 3.096 0.072 7.74 1.656 12.383 3.24 4.645 1.512 12.529 5.328 14.762 5.76 2.014 0.252 0.069-1.944-2.523-3.672z"/>
  <path id="path41" d="m178.09 13.667c0.287-0.072-2.268 4.212-3.779 7.02-1.549 2.592-3.205 7.992-5.365 9-2.375 0.9-6.119-1.98-8.172-3.096-2.088-1.152-4.967-3.348-3.924-3.384 1.08-0.108 7.271 3.24 9.973 2.952 2.484-0.36 3.492-3.06 5.363-5.04 1.835-2.196 5.472-7.416 5.904-7.452z"/>
  <path id="path43" d="m165.71 46.715c0.541-0.144 0.037003 2.232-0.539 3.24-0.541 0.936-0.936 2.52-2.844 2.52-2.088-0.108-8.785-2.34-9-2.664-0.145-0.468 5.723 1.116 7.883 0.576 1.981-0.612 3.854-3.6 4.5-3.672z"/>
  <g stroke-width=".036" stroke-miterlimit="10" stroke="#000">
   <path id="path45" fill="#ff007f" d="m148.68 1.715c-3.096 0-6.192 0.036-9.432 0.396-3.348 0.324-7.452 0.792-9.828 1.404-2.376 0.432-3.924 0.9-4.5 1.404l3.204 4.788c0.936 1.872 1.836 3.744 2.7 5.22 0.79199 1.44 1.584 2.88 2.232 3.924 3.276-0.972 6.048-1.44 8.46-1.404 2.376-0.108 4.572 0.36 5.616 1.548 0.89999 1.116 1.08 3.6-0.144 5.508-1.368 1.836-6.264 4.032-7.74 5.76-1.584 1.656-1.404 2.412-1.404 4.356-0.144 1.944-0.17999 5.4 0.72 7.02 0.828 1.404 2.88 1.548 4.5 1.692 1.548 0.071999 3.132-0.252 4.896-0.972h2.124c1.692 0.72 3.383 1.044 4.932 0.972 1.549-0.144 3.564-0.288 4.5-1.692 0.86299-1.62 0.72099-5.076 0.68399-7.02-0.215-1.944 0.10901-2.7-1.404-4.356-1.584-1.728-6.479-3.924-7.74-5.76-1.295-1.908-1.151-4.392-0.143-5.508 1.008-1.188 3.168-1.656 5.653-1.548 2.412-0.036001 5.039 0.432 8.424 1.404 0.68399-1.044 1.439-2.484 2.268-3.924 0.75601-1.476 1.691-3.348 2.664-5.22l3.24-4.788c-0.61301-0.504-2.16-0.972-4.5-1.404-2.557-0.612-6.588-1.08-9.865-1.404-3.275-0.36-6.371-0.396-9.431-0.396h-0.686z"/>
   <path id="path47" d="m71.784 157.96h158.94v37.404h-158.94v-37.404z"/>
   <g fill="#bfbfbf">
    <path id="path49" d="m78.083 161.34h25.236v4.896h-25.236v-4.896z"/>
    <path id="path51" d="m109.04 161.34h25.236v4.896h-25.236v-4.896z"/>
    <path id="path53" d="m78.083 167.82h25.236v4.896h-25.236v-4.896z"/>
    <path id="path55" d="m109.04 167.82h25.236v4.896h-25.236v-4.896z"/>
    <path id="path57" d="m78.083 174.3h25.236v4.896h-25.236v-4.896z"/>
    <path id="path59" d="m109.04 174.3h25.236v4.896h-25.236v-4.896z"/>
    <path id="path61" d="m78.083 180.78h25.236v4.896h-25.236v-4.896z"/>
   </g>
   <path id="path63" fill="#ff0" d="m109.04 180.78h25.236v4.896h-25.236v-4.896z"/>
   <g fill="#bfbfbf">
    <path id="path65" d="m78.083 187.26h25.236v4.896h-25.236v-4.896z"/>
    <path id="path67" d="m109.04 187.26h25.236v4.896h-25.236v-4.896z"/>
   </g>
   <path id="path69" fill="#7f7f7f" d="m104.69 161.12h2.556v30.924h-2.556v-30.924z"/>
   <g fill="#bfbfbf">
    <path id="path71" d="m163.58 161.34h25.199v4.896h-25.199v-4.896z"/>
    <path id="path73" d="m194.54 161.34h25.201v4.896h-25.201v-4.896z"/>
    <path id="path75" d="m163.58 167.82h25.199v4.896h-25.199v-4.896z"/>
    <path id="path77" d="m194.54 167.82h25.201v4.896h-25.201v-4.896z"/>
    <path id="path79" d="m163.58 174.3h25.199v4.896h-25.199v-4.896z"/>
    <path id="path81" d="m194.54 174.3h25.201v4.896h-25.201v-4.896z"/>
   </g>
   <path id="path83" fill="#ff0" d="m163.58 180.78h25.199v4.896h-25.199v-4.896z"/>
   <g fill="#bfbfbf">
    <path id="path85" d="m194.54 180.78h25.201v4.896h-25.201v-4.896z"/>
    <path id="path87" d="m163.58 187.26h25.199v4.896h-25.199v-4.896z"/>
    <path id="path89" d="m194.54 187.26h25.201v4.896h-25.201v-4.896z"/>
   </g>
   <path id="path91" fill="#7f7f7f" d="m190.15 161.12h2.555v30.924h-2.555v-30.924z"/>
   <path id="path93" d="m148.72 152.63h-8.496c-2.107 0-3.816 1.612-3.816 3.6v46.368c0 1.988 1.708 3.6 3.816 3.6h16.991c2.107 0 3.816-1.612 3.816-3.6v-46.368c0-1.988-1.709-3.6-3.816-3.6h-8.495z"/>
  </g>
  <path id="path95" fill="#bfbfbf" d="m148.7 153.35h-7.902c-1.968 0-3.564 1.563-3.564 3.492v45.108c0 1.929 1.596 3.492 3.564 3.492h15.804c1.969 0 3.564-1.563 3.564-3.492v-45.108c0-1.929-1.596-3.492-3.564-3.492h-7.902z"/>
  <g stroke-width=".036" stroke-miterlimit="10" stroke="#000">
   <path id="path97" d="m149.45 154.14h-5.706c-1.412 0-2.556 1.289-2.556 2.88v37.044c0 1.59 1.144 2.88 2.556 2.88h11.413c1.412 0 2.555-1.29 2.555-2.88v-37.044c0-1.591-1.143-2.88-2.555-2.88h-5.707z"/>
   <g fill="#bfbfbf">
    <path id="path99" d="m145.6 155.4h-1.35c-0.795 0-1.44 0.645-1.44 1.44v2.988c0 0.795 0.645 1.44 1.44 1.44h2.7c0.795 0 1.44-0.645 1.44-1.44v-2.988c0-0.795-0.645-1.44-1.44-1.44h-1.35z"/>
    <path id="path101" d="m152.91 155.47h-1.35c-0.79599 0-1.441 0.645-1.441 1.44v2.988c0 0.795 0.645 1.44 1.441 1.44h2.699c0.795 0 1.439-0.645 1.439-1.44v-2.988c0-0.795-0.645-1.44-1.439-1.44h-1.349z"/>
    <path id="path103" d="m145.6 162.6h-1.35c-0.795 0-1.44 0.645-1.44 1.44v2.988c0 0.79501 0.645 1.44 1.44 1.44h2.7c0.795 0 1.44-0.64499 1.44-1.44v-2.988c0-0.795-0.645-1.44-1.44-1.44h-1.35z"/>
    <path id="path105" d="m152.91 162.67h-1.35c-0.79599 0-1.441 0.64499-1.441 1.44v3.024c0 0.795 0.645 1.44 1.441 1.44h2.699c0.795 0 1.439-0.645 1.439-1.44v-3.024c0-0.795-0.645-1.44-1.439-1.44h-1.349z"/>
    <path id="path107" d="m145.6 169.51h-1.35c-0.795 0-1.44 0.645-1.44 1.44v3.024c0 0.795 0.645 1.44 1.44 1.44h2.7c0.795 0 1.44-0.64499 1.44-1.44v-3.024c0-0.795-0.645-1.44-1.44-1.44h-1.35z"/>
    <path id="path109" d="m152.91 169.58h-1.35c-0.79599 0-1.441 0.645-1.441 1.44v3.024c0 0.795 0.645 1.44 1.441 1.44h2.699c0.795 0 1.439-0.645 1.439-1.44v-3.024c0-0.795-0.645-1.44-1.439-1.44h-1.349z"/>
    <path id="path111" d="m145.6 176.53h-1.35c-0.795 0-1.44 0.64499-1.44 1.44v3.024c0 0.795 0.645 1.44 1.44 1.44h2.7c0.795 0 1.44-0.645 1.44-1.44v-3.024c0-0.795-0.645-1.44-1.44-1.44h-1.35z"/>
    <path id="path113" d="m152.91 176.6h-1.35c-0.79599 0-1.441 0.645-1.441 1.44v3.024c0 0.795 0.645 1.44 1.441 1.44h2.699c0.795 0 1.439-0.645 1.439-1.44v-3.024c0-0.795-0.645-1.44-1.439-1.44h-1.349z"/>
    <path id="path115" d="m145.6 183.19h-1.35c-0.795 0-1.44 0.645-1.44 1.44v2.988c0 0.795 0.645 1.44 1.44 1.44h2.7c0.795 0 1.44-0.645 1.44-1.44v-2.988c0-0.795-0.645-1.44-1.44-1.44h-1.35z"/>
    <path id="path117" d="m152.91 183.26h-1.35c-0.79599 0-1.441 0.645-1.441 1.44v2.988c0 0.795 0.645 1.44 1.441 1.44h2.699c0.795 0 1.439-0.645 1.439-1.44v-2.988c0-0.795-0.645-1.44-1.439-1.44h-1.349z"/>
    <path id="path119" d="m145.6 189.82h-1.35c-0.795 0-1.44 0.645-1.44 1.44v3.024c0 0.795 0.645 1.44 1.44 1.44h2.7c0.795 0 1.44-0.64499 1.44-1.44v-3.024c0-0.795-0.645-1.44-1.44-1.44h-1.35z"/>
    <path id="path121" d="m152.91 189.89h-1.35c-0.79599 0-1.441 0.645-1.441 1.44v3.024c0 0.795 0.645 1.44 1.441 1.44h2.699c0.795 0 1.439-0.645 1.439-1.44v-3.024c0-0.795-0.645-1.44-1.439-1.44h-1.349z"/>
   </g>
  </g>
  <path id="path123" d="m138.74 189.92c-0.28801-0.39601-0.28801 5.184 0 7.308 0.035995 2.016 0.216 3.852 0.828 4.932 0.53999 1.044 0.972 0.90001 2.844 1.224 1.728 0.25201 7.92 0.36 8.172 0.18001 0.216-0.324-4.932-1.224-6.552-1.872-1.656-0.68401-2.484-0.43201-3.312-2.304-0.828-2.052-1.765-9.144-1.98-9.468z"/>
  <path id="path125" d="m153.9 203.5c0.10701 0.324 1.979 0.108 2.844-0.108 0.576-0.28799 0.97099-0.82799 1.332-1.62 0.287-1.008 1.008-3.456 0.756-3.6-0.396-0.072006-1.512 2.124-2.377 3.132-0.828 0.828-2.699 1.836-2.555 2.196z"/>
  <g stroke-width=".036" stroke-miterlimit="10" stroke="#000">
   <path id="path127" d="m10.583 146.72c-1.8-0.072006-3.168 0.252-4.5 0.972-1.404 0.648-2.556 1.62-3.168 3.348-0.684 1.728-1.476 5.004-0.576 6.912 0.936 1.692 2.772 2.916 5.904 3.528l-0.216 5.904c-3.636-0.36-5.868 0.072006-7.092 1.584-1.224 1.476-1.224 5.364 0 7.092 1.08 1.656 3.312 2.376 6.696 2.556v4.536c-2.664 0.216-4.248 1.008-5.292 2.376-0.972 1.332-1.224 4.104-0.612 5.688 0.54 1.476 0.792 2.412 3.96 3.348 3.132 0.828 8.748 1.368 14.76 1.764 5.976 0.216 14.616 0.39601 21.06 0.39601 6.372 0.035995 11.88 0.035995 16.956 0 0.071999 3.276 0.72 5.724 2.34 7.488 1.584 1.62 4.536 2.736 6.912 2.772 2.196 0 5.148-0.43201 6.48-2.556 1.188-2.16 0.972-5.904 1.008-10.26 0-4.608-0.72-10.98-0.792-16.344-0.072006-5.4 0.216-11.124 0.18-15.372-0.18-4.32-0.036003-7.596-0.972-9.828-1.044-2.196-2.844-2.88-4.716-3.168-1.944-0.43201-5.148 0.18001-6.696 1.008-1.62 0.75601-2.772 2.052-3.168 3.744-6.516 0.216-13.032 0.324-20.088 0.18001-7.02-0.18001-17.172 0.28799-21.852-0.972-4.787-1.296-6.911-3.528-6.516-6.696z"/>
   <g fill="#bfbfbf">
    <path id="path129" d="m58.464 163.07l0.18-6.912c-11.484 0.18001-20.592 0.18001-27.756 0-7.164-0.252-11.556-0.612-14.976-1.368-3.492-0.936-4.608-2.196-5.724-3.348-1.224-1.152-1.476-2.268-1.152-3.348-1.764 0.252-2.988 0.864-3.96 1.98-0.972 1.08-1.836 2.7-1.764 4.32-0.072 1.62 0.468 3.384 1.764 4.716 1.26 1.152 2.232 1.512 6.12 2.196 3.816 0.54001 9.252 1.044 17.136 1.368 7.919 0.32399 17.784 0.36 30.132 0.396z"/>
    <path id="path131" d="m58.248 171.13l0.216 7.092c-8.964 0.035995-17.064-0.072006-24.84-0.18001-7.884-0.216-16.38-0.324-21.456-0.612-5.076-0.36-6.948-0.17999-8.676-0.972-1.872-0.89999-2.124-2.772-2.16-3.96-0.144-1.368 0.72-2.916 1.764-3.528 0.936-0.648 2.52-0.71999 4.356-0.21599-1.26 0.21599-0.54 0.648 2.16 1.008 2.628 0.396 8.568 1.044 13.788 1.368 5.148 0.144 10.979 0.216 16.92 0.216 5.796-0.035995 11.772-0.108 17.928-0.216z"/>
    <path id="path133" d="m58.248 187.87v7.092c-6.696 0.468-12.744 0.68401-18.684 0.79201-5.904 0-11.232 0-16.56-0.39601-5.508-0.36-12.384-1.296-15.768-1.98-3.528-0.828-3.78-1.764-4.5-2.952-0.828-1.368-0.432-3.528 0.36-4.536 0.792-0.972 2.304-1.476 4.536-1.368-0.252 0.612 0.216 1.188 1.404 1.584 1.116 0.39601 2.268 0.468 5.688 0.79201 3.276 0.216 7.56 0.36 14.796 0.576 7.272 0.10799 16.704 0.28799 28.728 0.396z"/>
   </g>
   <g fill="#ff007f">
    <path id="path135" d="m9.792 161.88v6.516c3.456 0.612 7.02 1.116 11.232 1.368 4.104 0.108 8.748 0.216 13.392 0.17999 4.608 0.036011 9.144 0.036011 14.004 0v-5.688c-7.884 0.21599-14.796 0.144-21.276-0.216-6.517-0.43201-12.168-1.152-17.352-2.16z"/>
    <path id="path137" d="m9.432 178.62c1.764 0.468 5.76 0.864 11.988 1.188 6.228 0.21599 14.544 0.396 25.236 0.396v5.904c-6.336 0.14401-11.808 0.252-16.956 0.18001-5.148-0.108-10.188-0.252-13.572-0.576-3.384-0.43199-5.616-0.864-6.696-1.584v-5.508z"/>
    <path id="path139" d="m51.948 164.65v5.112h5.904v-5.112h-5.904z"/>
    <path id="path141" d="m51.948 180.78v5.112h5.904v-5.112h-5.904z"/>
   </g>
  </g>
  <path id="path143" fill="url(#svg_1)" d="m61.02 198.89c0.576 4.392 1.62 4.068 3.132 5.148 1.368 0.972 3.636 1.512 5.148 1.188 1.44-0.39601 3.06-0.54001 3.744-3.348 0.612-3.06-0.035995-7.956 0-14.004-0.035995-6.12-0.108-16.272-0.216-21.852-0.18-5.508-0.072006-8.928-0.792-11.232-0.972-2.592-2.592-3.348-4.32-3.528-1.728-0.18001-4.968 0.864-6.12 2.556-1.188 1.548-1.368 3.42-1.368 7.272-0.144 3.96 0.18 9.468 0.396 15.948 0.071999 6.3-0.252 17.244 0.396 21.852z"/>
  <path id="path145" d="m6.083 155c0.036 0.864 0.576 2.232 1.764 3.132 1.224 0.72 1.872 1.152 5.688 1.584 3.78 0.36 15.984 1.152 16.74 0.972 0.576-0.32399-9.54-1.62-12.996-2.34-3.6-0.72-6.12-1.188-7.848-1.98-1.728-1.044-1.872-3.132-2.376-3.348-0.611-0.21599-1.116 1.044-0.972 1.98z"/>
  <path id="path147" d="m3.6 172.36c0.072 0.936 0.792 2.124 2.016 2.988 1.224 0.612 2.016 0.972 5.832 1.08 3.852 0.108 16.02-0.216 16.776-0.39601 0.432-0.28799-9.612-0.89999-13.176-1.26-3.672-0.504-6.156-0.576-7.992-1.332-1.836-0.79199-2.124-2.988-2.664-3.132-0.72-0.21599-0.936 1.116-0.792 2.052z"/>
  <path id="path149" d="m4.572 188.7c0.072 0.93599 0.756 2.124 2.052 2.988 1.26 0.612 1.944 0.972 5.796 1.08s16.02-0.216 16.776-0.396c0.504-0.28801-9.576-0.90001-13.14-1.26-3.6-0.504-6.228-0.57599-8.028-1.332-1.872-0.79201-2.052-2.988-2.628-3.132-0.684-0.216-1.008 1.116-0.828 2.052z"/>
  <path id="path151" d="m63.396 175.67c-0.324 0.71999-0.108 12.924 0.36 17.316 0.396 4.248 0.9 7.056 2.196 8.28 1.296 1.008 5.004-1.008 5.292-1.584 0.035995-0.612-3.348 0-4.32-1.764-0.972-1.908-1.08-5.544-1.584-9.252-0.612-3.852-1.764-13.644-1.944-12.996z"/>
  <path id="path153" d="m63.576 168.76c-0.612-0.072006-0.72-6.516-0.18-9.036 0.504-2.592 3.168-5.616 3.708-5.724 0.468-0.071991-0.252 2.772-0.756 5.328-0.684 2.484-2.305 9.288-2.772 9.432z"/>
  <g stroke-width=".036" stroke-miterlimit="10" stroke="#000">
   <path id="path155" d="m288.43 146.47c1.691-0.071991 3.203 0.25201 4.535 0.972 1.297 0.64801 2.484 1.62 3.168 3.348 0.61298 1.728 1.404 5.004 0.57599 6.912-0.97101 1.692-2.807 2.916-5.902 3.528l0.215 5.904c3.527-0.36 5.832 0.072006 7.057 1.584 1.115 1.476 1.115 5.364 0 7.092-1.117 1.656-3.348 2.376-6.697 2.556v4.536c2.557 0.216 4.285 1.008 5.328 2.376 1.008 1.332 1.08 4.104 0.61301 5.688-0.64801 1.476-0.86502 2.412-3.961 3.348-3.203 0.828-8.82 1.368-14.76 1.764-6.084 0.216-14.725 0.39601-21.061 0.39601-6.443 0.035995-11.916 0.035995-16.955 0-0.071991 3.276-0.86299 5.724-2.377 7.488-1.727 1.62-4.535 2.736-6.875 2.772-2.34 0-5.293-0.43201-6.516-2.556-1.225-2.16-1.045-5.904-0.97301-10.26-0.072006-4.608 0.61099-10.98 0.793-16.344 0-5.4-0.396-11.124-0.217-15.372 0.14499-4.32-0.037003-7.596 1.008-9.828 0.97301-2.196 2.736-2.88 4.717-3.168 1.836-0.43201 5.039 0.17999 6.695 1.008 1.584 0.756 2.736 2.052 3.168 3.744 6.443 0.216 12.996 0.324 20.088 0.18001 6.947-0.18001 17.1 0.28799 21.852-0.972 4.789-1.296 6.768-3.528 6.481-6.696z"/>
   <path id="path157" fill="#bfbfbf" d="m240.59 162.82l-0.18-6.912c11.447 0.17999 20.52 0.17999 27.756 0 7.092-0.252 11.484-0.612 14.977-1.368 3.383-0.936 4.535-2.196 5.688-3.348 1.115-1.152 1.512-2.268 1.188-3.348 1.729 0.252 2.951 0.864 3.961 1.98 0.89801 1.08 1.764 2.7 1.764 4.32s-0.54102 3.384-1.764 4.716c-1.369 1.152-2.305 1.512-6.121 2.196-3.889 0.54001-9.324 1.044-17.137 1.368-7.956 0.32399-17.857 0.36-30.132 0.396z"/>
   <path id="path159" fill="url(#svg_2)" d="m240.77 170.88l-0.18 7.092c8.855 0.036011 16.992-0.071991 24.805-0.17999 7.738-0.216 16.344-0.324 21.49-0.612 5.004-0.36 6.77-0.18001 8.641-0.972 1.764-0.89999 2.016-2.772 2.16-3.96 0.035004-1.368-0.828-2.916-1.764-3.528-1.045-0.648-2.484-0.72-4.32-0.21599 1.188 0.21599 0.46899 0.648-2.16 1.008-2.736 0.396-8.676 1.044-13.787 1.368-5.293 0.144-11.125 0.216-16.957 0.216-5.833-0.035995-11.809-0.108-17.928-0.216z"/>
   <path id="path161" fill="#bfbfbf" d="m240.77 187.62v7.092c6.588 0.468 12.779 0.68401 18.721 0.79201 5.832 0 11.123 0 16.559-0.39601 5.4-0.36 12.313-1.296 15.732-1.98 3.385-0.828 3.744-1.764 4.537-2.952 0.61102-1.368 0.43201-3.528-0.396-4.536-0.828-0.972-2.34-1.476-4.537-1.368 0.289 0.612-0.215 1.188-1.367 1.584-1.225 0.39601-2.34 0.468-5.688 0.79201-3.385 0.216-7.668 0.36-14.797 0.576-7.38 0.10799-16.776 0.28799-28.764 0.396z"/>
   <g fill="#ff007f">
    <path id="path163" d="m289.22 161.63v6.516c-3.492 0.612-7.094 1.116-11.232 1.368-4.213 0.108-8.857 0.216-13.393 0.17999-4.607 0.036011-9.217 0.036011-13.969 0v-5.688c7.813 0.21599 14.762 0.144 21.277-0.216 6.444-0.43201 12.168-1.152 17.317-2.16z"/>
    <path id="path165" d="m289.62 178.37c-1.871 0.468-5.832 0.864-12.023 1.188-6.264 0.216-14.615 0.39601-25.199 0.39601v5.904c6.264 0.144 11.771 0.252 16.955 0.18001 5.041-0.108 10.115-0.252 13.572-0.576 3.348-0.43201 5.58-0.864 6.695-1.584v-5.508z"/>
    <path id="path167" d="m247.1 164.4v5.112h-5.939v-5.112h5.939z"/>
    <path id="path169" d="m247.1 180.53v5.112h-5.939v-5.112h5.939z"/>
   </g>
  </g>
  <path id="path171" fill="url(#svg_1)" d="m238.03 198.64c-0.64801 4.392-1.799 4.068-3.168 5.148-1.404 0.972-3.707 1.512-5.111 1.188-1.549-0.396-3.168-0.53999-3.744-3.348-0.72099-3.06-0.071991-7.956 0-14.004-0.071991-6.12 0-16.272 0.21701-21.852 0.069992-5.508-0.037003-8.928 0.791-11.232 0.86299-2.592 2.484-3.348 4.32-3.528 1.691-0.18001 4.787 0.864 6.084 2.556 1.188 1.548 1.188 3.42 1.404 7.272 0.071991 3.96-0.289 9.468-0.39601 15.948-0.14499 6.3 0.14401 17.244-0.39699 21.852z"/>
  <path id="path173" d="m292.97 154.75c-0.18002 0.864-0.539 2.232-1.764 3.132-1.295 0.72-2.051 1.152-5.723 1.584-3.889 0.36-16.094 1.152-16.74 0.972-0.64798-0.32399 9.467-1.62 12.996-2.34 3.455-0.72 6.084-1.188 7.883-1.98 1.621-1.044 1.764-3.132 2.377-3.348 0.504-0.216 1.008 1.044 0.97101 1.98z"/>
  <path id="path175" d="m295.45 172.1c-0.14298 0.936-0.86298 2.124-2.016 2.988-1.332 0.612-2.123 0.972-5.832 1.08-3.924 0.108-16.127-0.216-16.775-0.39601-0.54102-0.28799 9.504-0.89999 13.176-1.26 3.492-0.504 6.156-0.576 7.992-1.332 1.764-0.79199 1.943-2.988 2.627-3.132 0.57602-0.21599 0.90002 1.116 0.828 2.052z"/>
  <path id="path177" d="m294.48 188.45c-0.18201 0.93599-0.86502 2.124-2.053 2.988-1.367 0.612-2.053 0.972-5.797 1.08-3.924 0.108-16.127-0.216-16.775-0.396-0.61102-0.28801 9.504-0.90001 13.141-1.26 3.527-0.504 6.156-0.57599 8.027-1.332 1.764-0.79199 1.943-2.988 2.629-3.132 0.577-0.216 0.89899 1.116 0.828 2.052z"/>
  <path id="path179" d="m235.66 175.42c0.28699 0.72-0.072006 12.924-0.39601 17.316-0.541 4.248-0.93599 7.056-2.16 8.28-1.404 1.008-5.076-1.008-5.328-1.584-0.18001-0.612 3.313 0 4.355-1.764 0.89999-1.908 0.97301-5.544 1.584-9.252 0.504-3.852 1.656-13.644 1.945-12.996z"/>
  <path id="path181" d="m235.48 168.5c0.539-0.072006 0.646-6.516 0.17999-9.036-0.686-2.592-3.277-5.616-3.744-5.724-0.61299-0.071991 0.252 2.772 0.791 5.328 0.57501 2.484 2.196 9.288 2.773 9.432z"/>
  <g stroke-width=".036" stroke-miterlimit="10" stroke="#000">
   <path id="path183" d="m147.28 59.099c-4.068 0.072002-8.316 0.576-12.744 1.368-4.5 0.648-8.82 1.512-14.076 3.42-5.508 1.944-12.168 5.184-17.64 8.46-5.364 3.24-10.152 6.84-14.364 10.8-4.356 3.744-7.956 7.668-11.232 11.916-3.276 4.176-6.012 8.46-8.352 13.392-2.412 5.004-4.644 9.144-5.868 16.02-1.296 6.768-1.836 14.616-1.764 24.084h176.58c0.069992-9.468-0.576-17.316-1.801-24.084-1.332-6.876-3.564-11.016-5.867-16.02-2.412-4.932-5.148-9.216-8.354-13.392-3.311-4.248-6.947-8.172-11.195-11.916-4.283-3.96-9.072-7.56-14.363-10.8-5.58-3.276-12.205-6.516-17.641-8.46-5.363-1.908-9.648-2.771-14.111-3.42-4.537-0.792-8.641-1.296-12.709-1.368h-4.5z"/>
   <path id="path185" fill="url(#svg_4)" d="m147.24 60.467c-3.96 0.072002-8.028 0.468-12.42 1.116-4.428 0.684-9.18 2.268-14.364 3.924-5.22 1.692-8.964 3.852-14.22 6.588-5.256 2.7-8.568 5.94-12.78 9.145-4.176 3.168-7.74 6.336-10.944 9.9-3.204 3.528-6.768 8.568-9.108 12.672s-6.408 11.628-7.668 17.244-1.908 13.932-1.908 13.932h171.94c-1.045-7.38-2.412-13.572-4.248-19.008-1.943-5.508-3.996-9.324-6.553-13.392-2.592-4.104-5.291-7.668-8.496-11.088-3.238-3.456-6.84-6.732-10.799-9.828-4.068-3.312-8.855-6.876-13.393-9.576-4.752-2.88-9.863-5.112-14.363-6.84s-8.1-2.412-12.457-3.168c-4.463-0.828-8.928-1.368-13.787-1.62h-4.428v-0.000999z"/>
   <path id="path187" fill="#0f9fe9" d="m149.65 137.04h-84.654c-0.805 0-1.458 0.685-1.458 1.53v6.804c0 0.845 0.653 1.53 1.458 1.53h169.31c0.80701 0 1.459-0.685 1.459-1.53v-6.804c0-0.845-0.65201-1.53-1.459-1.53h-84.653z"/>
   <path id="path189" d="m67.644 125.7l25.056 7.236 25.704-8.46v7.776l3.276 0.288v-8.064l29.268 8.892 25.019-9.324v8.892h3.854v-8.604l27.504 8.496 22.535-9.468 0.145-2.16h-56.195l-23.257 8.604-30.24-9.18-26.82 9.036-25.56-7.524c-0.072998 1.188-0.182 2.376-0.289 3.564z"/>
  </g>
  <path id="path193" d="m187.06 97.511l6.695-7.236c3.744 3.06 6.623 5.94 9.18 9.036 2.412 3.06 4.283 5.94 5.473 9.036l6.695-3.456c1.764 2.736 2.916 5.292 3.852 7.812 0.756 2.448 1.297 4.824 1.225 7.128h-19.837c-0.14499-4.176-1.152-8.1-3.42-11.772-2.268-3.816-5.508-7.2-9.863-10.548z"/>
  <path id="path195" d="m194.44 98.771l-0.791 8.604-6.732 0.972 6.299 2.16 1.117 5.472 1.223-5.04 4.248-2.052-4.104-1.656-1.26-8.46z"/>
  <path id="path199" d="m117.04 94.091c-2.448-0.324-5.868-1.008-10.656-2.052-4.824-1.044-10.62-2.448-17.784-4.212 4.68-4.176 9.324-7.74 13.788-10.692 4.464-3.024 8.28-5.112 12.996-7.092 4.644-2.088 9.72-3.78 14.796-4.932 4.968-1.188 9.972-1.872 15.156-2.052l-0.108 6.408c2.556 0.10799 4.824 0.28799 7.093 0.684 2.195 0.324 4.248 0.828 6.154 1.512l-5.471 10.944c-3.457-1.116-7.056-1.476-10.944-1.368-3.96 0-8.892 1.008-12.312 2.196-3.492 1.188-6.228 3.204-8.352 5.076-2.161 1.728-3.564 3.636-4.356 5.58z"/>
  <g stroke-width=".036" stroke-miterlimit="10" stroke="#000">
   <path id="path201" d="m159.59 73.859c5.184 1.44 9.504 2.808 13.535 4.5 3.889 1.512 6.84 3.204 9.973 5.076 3.023 1.872 5.904 3.924 8.496 6.156l1.367-1.08c-3.959-3.06-7.703-5.76-11.627-7.956-3.996-2.232-8.1-4.104-11.629-5.472-3.563-1.404-6.623-2.448-9.324-2.988-0.252 0.576-0.504 1.152-0.791 1.764z"/>
   <path id="path203" d="m88.164 89.195c-1.152 0.792-2.376 1.98-3.672 3.42-1.476 1.368-2.988 3.096-4.392 5.184-1.404 2.052-2.772 4.464-3.96 7.236l22.968 4.788 25.848-8.892 6.3 4.104c4.104-2.124 7.704-3.168 11.088-3.528 3.312-0.36 6.228 0.35999 8.893 1.62 2.664 1.152 4.895 3.348 6.551 5.472 1.477 2.052 2.125 4.104 2.34 6.984 0.18199 2.88-0.324 6.12-1.367 10.116l2.988-1.224c1.332-3.96 1.656-7.56 1.115-10.8-0.68401-3.42-2.34-6.48-4.535-8.784-2.197-2.304-5.76-4.032-8.46-4.896-2.736-0.9-4.788-1.224-7.812-0.68401-3.132 0.432-6.732 1.476-10.8 3.276l-5.328-4.788c-12.565-2.844-25.165-5.724-37.765-8.604z"/>
  </g>
  <path id="path205" d="m128.38 97.367l3.168 3.456c2.088-0.972 4.32-1.656 6.696-2.196 2.268-0.612 4.68-1.116 7.236-0.972 2.448 0.036003 5.148 0.54 7.524 1.512 2.268 0.9 4.32 2.592 6.012 4.104 1.549 1.368 2.557 2.592 3.564 4.5 0.97101 1.944 1.836 4.32 2.195 6.984 0.252 2.556 0.107 5.436-0.43201 8.496l7.127-2.628c0-3.636-0.35899-6.732-1.08-9.576-0.791-2.916-1.654-5.004-3.42-7.38-1.943-2.484-4.355-5.256-7.379-6.948-3.061-1.728-6.947-2.736-10.548-3.168-3.708-0.54-7.776-0.216-11.232 0.432-3.491 0.612-6.586 1.692-9.431 3.384z"/>
  <path id="path207" d="m150.7 128.04l-29.7-9.576-27.9 9.288-24.48-7.128c0.86401-3.096 1.908-5.652 3.132-8.064 1.152-2.412 2.52-4.464 3.96-6.156l23.832 6.012 25.272-9.828 7.272 4.356c5.688-2.808 10.296-4.032 14.364-3.672 3.888 0.324 7.308 3.348 9.289 5.724 1.871 2.304 2.375 5.148 2.482 8.1 0.072006 2.88-0.57399 5.832-1.943 9l-5.58 1.944z"/>
  <path id="path209" d="m71.244 253.43c-0.036003 9.756-0.036003 21.313 0 35.641-0.036003 14.328-0.036003 35.461 0 49.248-0.072006 13.645-0.576 21.637 0 31.752 0.468 10.008 0.71999 19.188 3.24 27.541 2.412 8.135 6.444 14.65 11.664 21.348 5.148 6.66 12.6 13.463 19.44 18.467 6.624 4.824 13.32 8.389 21.06 10.693 7.704 2.123 17.028 2.951 25.597 2.916 8.568 0.034973 17.748-0.793 25.596-2.916 7.703-2.305 14.256-5.869 21.023-10.693 6.732-5.004 14.184-11.807 19.439-18.467 5.113-6.697 9.145-13.213 11.664-21.348 2.412-8.354 2.664-17.533 3.24-27.541 0.46899-10.115-0.035004-18.107 0-31.752-0.035004-13.787-0.035004-34.92 0-49.248-0.035004-14.328-0.035004-25.885 0-35.641h-30.707c-0.037003 8.029-0.037003 17.82 0 29.664-0.037003 11.773-0.037003 29.701 0 41.004 0.035004 11.232 0.17999 18.145 0 26.424-0.289 8.316-0.756 15.59-1.98 22.934-1.332 7.234-3.492 14.076-6.191 19.943-2.844 5.688-6.408 10.439-10.693 14.256-4.5 3.564-9.936 6.191-15.191 7.885-5.328 1.584-13.031 2.016-15.732 2.412-2.735 0.35901 2.629 0.35901 0 0-2.771-0.396-10.655-0.828-15.731-2.412-5.148-1.693-9.756-4.033-14.22-7.561-4.572-3.709-9.324-8.172-12.312-13.932-2.952-5.797-4.428-13.357-5.544-20.592-1.26-7.381-1.728-14.652-1.98-22.934-0.288-8.279-0.144-15.191 0-26.424-0.036003-11.303-0.036003-29.23 0-41.004-0.036003-11.844-0.036003-21.635 0-29.664h-31.682v0.000992z" stroke="#000" stroke-miterlimit="10" stroke-width=".036"/>
  <path id="path211" fill="#0f9fe9" d="m74.484 256.34c-0.036003 9.756-0.036003 21.313 0 35.641-0.036003 14.328-0.036003 35.461 0 49.248-0.144 13.645-0.612 21.637 0 31.752 0.576 10.008 1.224 19.691 3.888 27.541 2.628 7.631 6.948 12.527 11.988 18.432 4.932 5.795 11.7 12.131 17.82 16.523 6.012 4.248 11.196 7.199 18.468 9.396 7.2 2.088 16.056 3.42 24.624 3.564 8.461 0.035004 18.217-0.793 25.92-2.916 7.523-2.197 13.068-5.689 19.404-10.045 6.229-4.5 13.104-10.512 18.145-16.523 4.895-6.121 9.107-12.096 11.664-19.729 2.52-7.813 2.879-16.561 3.563-26.244 0.576-9.863-0.070007-18.18 0-31.752-0.035004-13.787-0.035004-34.92 0-49.248-0.035004-14.328-0.035004-25.885 0-35.641l-24.228-0.141c-0.037003 8.027-0.037003 17.818 0 29.664-0.037003 11.771-0.037003 29.699 0 41.004 0.034988 11.23 0.17999 18.143 0 26.424-0.36101 8.316-0.43201 15.443-2.016 22.932-1.693 7.309-4.465 14.977-7.777 21.061-3.492 5.867-7.74 10.871-12.313 14.58-4.643 3.6-9.646 5.795-14.867 7.416-5.221 1.547-10.943 2.303-16.199 2.268-5.473-0.072021-10.765-1.117-15.876-2.592-5.112-1.584-9.972-3.385-14.58-6.77-4.68-3.42-9.9-8.063-13.284-13.932-3.492-6.084-5.976-14.543-7.452-22.031-1.584-7.668-1.728-14.615-1.98-22.932-0.288-8.281-0.144-15.193 0-26.424-0.036003-11.305-0.036003-29.232 0-41.004-0.036003-11.846-0.036003-21.637 0-29.664l-24.912 0.142z"/>
  <g stroke-width=".036" stroke-miterlimit="10" stroke="#000">
   <path id="path213" d="m179.96 259.3l-7.668 11.736 8.354 11.303 7.883-11.736-8.569-11.303zm-27.756 0l-7.667 11.736 8.353 11.303 7.883-11.736-8.569-11.303zm-27.503 0l-7.668 11.736 8.316 11.303 7.92-11.736-8.568-11.303zm67.679 23.039l-7.668 11.736 8.354 11.268 7.883-11.736-8.569-11.268zm-25.738 0l-7.668 11.736 8.352 11.268 7.92-11.736-8.604-11.268zm-28.657 0l-7.668 11.736 8.352 11.268 7.92-11.736-8.604-11.268zm-24.589 0l-7.668 11.736 8.352 11.268 7.884-11.736-8.568-11.268zm66.564 28.874l-7.668 11.736 8.354 11.268 7.883-11.736-8.569-11.268zm-28.44 0l-7.668 11.736 8.352 11.268 7.92-11.736-8.604-11.268zm-26.171-0.18l-7.668 11.734 8.352 11.27 7.92-11.736-8.604-11.268zm-9.9 22.535l6.768 11.951c-1.512-0.574-2.772-0.75601-3.636-0.68402-0.9 0.072021-1.548 0.39603-1.8 1.117-0.28799-2.34-0.936-3.709-1.8-4.5-0.936-0.793-2.088-0.793-3.6 0 1.332-2.628 2.699-5.255 4.068-7.884zm23.22-0.252l-8.352 15.336c0.28799 0.57599 0.53999 1.404 0.89999 2.484 0.324 1.115 0.756 2.268 1.152 3.852 1.656-3.527 3.312-5.977 5.4-7.885 1.944-1.871 4.176-2.879 6.552-3.168-1.872-3.527-3.744-7.055-5.652-10.619zm26.424 0l8.316 15.336c-0.324 0.57599-0.576 1.404-0.90001 2.484-0.396 1.115-0.72099 2.268-1.115 3.852-1.729-3.527-3.35-5.977-5.4-7.885-1.98-1.871-4.213-2.879-6.553-3.168 1.872-3.527 3.744-7.055 5.652-10.619zm16.019 40.393c-0.71901-0.25201-1.656-1.441-2.951-3.168-1.404-1.836-2.809-4.393-4.752-7.668 0.68399 2.52 1.115 4.824 1.152 6.768 0 2.016-0.252 3.492-0.89999 4.967 1.295-0.17999 2.52-0.32199 3.816-0.43201 1.188-0.108 2.448-0.39499 3.635-0.46698zm-58.247 0c0.68401-0.25201 1.62-1.441 2.952-3.168 1.332-1.836 2.772-4.393 4.752-7.668-0.72 2.52-1.152 4.824-1.152 6.768-0.035995 2.016 0.216 3.492 0.90001 4.967-1.332-0.17999-2.556-0.32199-3.816-0.43201-1.224-0.108-2.484-0.39499-3.636-0.46698zm15.12 23.687c-2.124-0.793-2.952-1.621-2.916-2.484 0.144-1.043 1.872-2.844 3.384-2.916 1.296-0.071991 3.924 0.75601 4.968 2.484 1.008 1.619 1.656 4.787 1.116 6.984-0.53999 2.051-2.088 4.463-4.5 5.436-2.556 0.86301-6.912 1.332-10.152-0.25198-3.384-1.729-7.164-6.156-9.252-9.684-2.16-3.6-3.168-8.461-3.168-11.52 0-3.17 1.656-5.869 3.168-6.984 1.332-1.225 4.104-0.89999 5.4 0 1.26 0.75601 2.016 2.375 2.268 4.715l3.168-4.715c0.396 2.051 1.044 3.672 2.232 5.4 1.116 1.584 2.628 3.059 4.536 4.283-4.068 0.28699-6.984 1.152-8.604 2.736-1.692 1.547-1.944 4.643-1.332 6.516 0.504 1.729 2.88 3.455 4.5 4.068 1.44 0.396 3.852 0.071991 4.752-0.68402 0.828-0.71899 0.972-1.799 0.43201-3.383zm-39.852-146.56l9.72 20.736-6.48 21.709 10.044 28.512-10.044 27.215s-0.324 5.004 1.296 8.102c1.62 3.059 2.844 4.283 5.184 4.211 2.34-0.071991 4.032-2.988 4.212-4.535 0.144-1.549-2.664-0.25198-3.564-1.621-0.9-1.367-0.612-3.564 0-3.887 0.612-0.324 4.068-0.46899 6.048 0.79098 1.944 1.225 2.124 4.213 5.616 6.66 0.576 3.385 0.252 6.623-0.972 9.721-1.26 2.986-4.896 7.523-6.48 8.748-1.8 1.043-3.312-0.793-3.564-1.621s0.504-1.908 2.268-3.24c-3.816 0.25201-6.3 1.117-7.452 2.592-1.152 1.477-0.9 5.004 0.324 6.156 1.044 1.008 3.096 1.008 6.156 0-0.576 4.033-0.144 7.813 1.296 11.34 1.368 3.42 3.744 6.66 7.128 9.721 3.384 2.951 9 6.732 12.96 8.424 3.744 1.656 6.768 2.195 10.044 1.619 3.204-0.79102 7.308-4.57 9.396-5.508 1.836-0.93597 0.541-0.93597 2.484 0 1.98 0.93802 6.084 4.717 9.396 5.508 3.168 0.57599 6.191 0.036987 10.043-1.619 3.852-1.691 9.469-5.473 12.961-8.424 3.383-3.061 5.615-6.301 7.092-9.721 1.367-3.527 1.799-7.307 1.295-11.34 2.988 1.008 5.041 1.008 6.156 0 1.117-1.152 1.369-4.68 0.32399-6.156-1.225-1.475-3.707-2.34-7.451-2.592 1.691 1.332 2.447 2.412 2.268 3.24-0.35899 0.828-1.873 2.664-3.564 1.621-1.729-1.332-5.219-5.545-6.443-8.748-1.188-3.205-1.584-6.77-0.89999-10.549 3.492-2.447 3.455-5.039 5.436-6.301 1.945-1.26 5.545-0.646 6.121-0.32199 0.61099 0.32199 0.898 2.52 0 3.887-0.865 1.369-3.709 0.071991-3.564 1.621 0.18001 1.547 1.871 4.463 4.211 4.535 2.377 0.071991 3.564-1.152 5.186-4.211 1.619-3.098 1.295-8.102 1.295-8.102l-10.043-27.215 10.043-28.512-6.48-21.709 9.721-20.736-6.119-1.008-9.037 11.52-6.084-11.268h-8.82l-9.467 12.852-10.152-13.318h-8.1l-9.936 13.066-7.02-13.283-10.368-0.252-10.368 13.787-7.02-12.42-6.232 0.324zm67.356 146.56c2.088-0.793 2.879-1.621 2.916-2.484-0.21701-1.043-1.945-2.844-3.385-2.916-1.404-0.071991-4.031 0.75601-4.969 2.484-1.078 1.619-1.727 4.787-1.115 6.984 0.504 2.051 2.053 4.463 4.5 5.436 2.447 0.86301 6.805 1.332 10.152-0.25198 3.275-1.729 7.057-6.156 9.252-9.684 2.053-3.6 3.061-8.461 3.168-11.52-0.107-3.17-1.764-5.869-3.168-6.984-1.439-1.225-4.213-0.89999-5.4 0-1.332 0.75601-2.088 2.375-2.268 4.715l-3.133-4.715c-0.395 2.051-1.15 3.672-2.268 5.4-1.188 1.584-2.592 3.059-4.5 4.283 4.068 0.28699 6.877 1.152 8.568 2.736 1.619 1.547 1.836 4.643 1.332 6.516-0.61099 1.729-2.951 3.455-4.5 4.068-1.549 0.396-3.961 0.071991-4.752-0.68402-0.86099-0.71899-1.006-1.799-0.42999-3.383zm25.524-63.828l-6.768 11.951c1.477-0.574 2.736-0.75601 3.635-0.68402 0.865 0.072021 1.514 0.39603 1.801 1.117 0.252-2.34 0.89999-3.709 1.801-4.5 0.898-0.793 2.051-0.793 3.6 0-1.333-2.628-2.702-5.255-4.069-7.884z"/>
   <path id="path215" fill="#bfbfbf" d="m181.12 255.7l-10.619 15.336 9.936 15.119 9.684-15.119-9.001-15.336zm-28.439 1.367l-10.152 13.969 10.836 14.004 9.469-13.752-10.153-14.221zm-27.757 0l-9.936 14.221 10.368 14.219 9.504-15.119-9.936-13.321zm67.681 23.004l-10.367 14.004 10.584 13.068 9.504-13.752-9.721-13.32zm-26.172-0.9l-10.152 14.904 10.836 14.221 9.936-15.121-10.62-14.004zm-28.44 0.683l-9.468 13.969 9.936 14.221 10.152-14.652-10.62-13.538zm-24.589-0.683l-9.252 14.904 9.936 13.752 10.152-14.436-10.836-14.22zm66.781 28.441l-10.367 14.867 11.051 14.904 9.252-14.652-9.936-15.119zm-28.657 0.215l-9.9 15.121 10.835 15.336 9.686-16.236-10.621-14.221zm-25.919 0.469l-9.72 14.652 10.152 13.535 10.152-14.904-10.584-13.283zm-9.937 21.886l9.036 17.137c-2.016-0.86301-3.708-1.188-5.22-1.115-1.548 0.069977-2.772 0.539-3.816 1.547 0.036003-2.447-0.54-4.068-1.584-4.715-1.188-0.64801-2.7-0.46902-4.968 0.68399 2.161-4.501 4.357-9.001 6.552-13.538zm23.473-0.935l-10.404 18.072c0.468 2.195 1.044 4.104 1.584 5.867 0.53999 1.729 1.188 3.061 1.8 4.285 2.016-3.996 4.068-6.912 6.552-9.037 2.412-2.123 5.004-3.275 7.92-3.6-2.484-5.183-4.968-10.367-7.452-15.587zm26.604 0.683l10.152 18.721c-1.01 1.045-1.873 2.232-2.449 3.852-0.64801 1.512-1.152 3.313-1.367 5.4-1.945-3.707-4.248-6.588-6.768-8.783-2.594-2.27-5.4-3.672-8.568-4.5 2.988-4.897 5.975-9.793 9-14.69zm18.072 45.145c-1.404-1.295-3.061-3.131-4.969-5.652-1.98-2.555-4.068-5.543-6.553-9.252 0.217 4.104 0.28899 7.416 0.217 9.936-0.145 2.521-0.396 4.248-0.90001 5.186 2.16-0.14499 4.32-0.21701 6.336-0.21701 2.053-0.072998 3.961-0.072998 5.869-0.000977zm-64.08-0.684c1.764-1.584 3.852-3.637 5.868-6.301 1.98-2.771 4.284-5.867 6.516-9.719-0.89999 4.391-1.296 7.883-1.332 10.619-0.035995 2.771 0.28801 4.465 1.116 5.615-1.044 0.64798-2.412 0.89999-4.5 0.89999-2.052-0.071014-4.609-0.393-7.668-1.114zm17.82 23.905c-3.168-1.477-4.392-2.773-4.068-4.033 0.36-1.332 4.14-3.887 6.336-3.635 2.088 0.28702 5.508 2.988 6.516 5.184 0.864 1.943-0.035995 4.932-0.89999 7.02-0.936 2.088-2.16 4.393-4.5 5.4-2.556 0.828-6.732 1.08-10.152-0.21701-3.456-1.475-7.812-4.967-10.152-8.135-2.412-3.313-3.816-7.453-4.068-11.053-0.396-3.707 0.684-8.531 2.268-10.584 1.548-2.053 5.22-1.98 6.984-1.584 1.656 0.289 2.628 1.369 2.916 3.385l2.952-4.068c1.368 3.816 2.916 6.695 4.5 8.783 1.62 2.016 3.132 3.096 4.968 3.385-5.184 1.295-8.712 2.52-10.584 4.068-1.908 1.512-1.44 3.24-0.936 4.752 0.36 1.439 2.232 2.664 3.384 3.383 1.044 0.46902 2.628 0.289 3.384 0 0.79199-0.39499 1.08-1.081 1.152-2.051zm-37.224-146.66l9 19.871-6.768 21.672 10.404 28.189-9.936 27.287s-0.72 4.824 0.9 7.92c1.62 3.061 1.26 2.771 3.6 2.699 2.34-0.070007 2.088 0.18198 2.268-1.367 0.144-1.512-2.736-1.549-3.6-2.916-0.89999-1.367 1.872-5.291 2.484-5.652 0.576-0.32398 5.004 1.008 6.984 2.268 1.944 1.262 3.06 4.105 6.552 6.553 0.36 5.184-0.144 9.289-1.8 12.852-1.8 3.457-5.832 6.732-7.92 7.885-2.196 0.86301-3.528-1.152-4.284-2.016-0.72-0.793-0.648-1.873 0.216-2.953-1.98 0.54098-3.168 1.369-3.564 2.34-0.468 0.93799-0.10799 2.809 1.08 3.529 1.188 0.539 3.096 0.75601 5.868 0.25201 0 4.139 0.468 7.92 1.8 11.484 1.26 3.527 2.448 6.623 5.652 9.719 3.06 2.988 9.144 6.697 12.852 8.352 3.636 1.656 5.4 2.053 9.036 1.332 3.564-0.936 8.424-6.479 12.204-6.516 3.6 0.036987 6.695 5.148 9.684 6.301 2.916 0.89999 4.428 1.08 8.137-0.43201 3.637-1.621 10.297-5.904 13.752-8.82 3.42-2.953 5.148-5.328 6.553-8.785 1.26-3.6 1.584-7.811 1.115-12.635 3.816 0.35898 6.371 0.107 7.668-0.46899 1.188-0.64801 0.324-2.557-0.217-3.385-0.646-0.89801-1.727-1.619-3.383-2.016 1.729 1.656 2.088 2.736 1.367 3.385-0.97099 0.64801-3.887 1.295-6.119 0.43201-2.232-0.97299-5.328-3.023-6.768-6.301-1.441-3.455-2.16-7.99-2.018-14.004 3.492-2.447 2.988-5.039 4.969-6.299 1.943-1.26 9.324-2.377 9.936-2.053 0.576 0.36102 1.332 4.033 0.43201 5.436-0.898 1.369-3.527 1.369-3.383 2.916 0.17999 1.549-0.324 1.729 2.051 1.801 2.342 0.107 1.98 0.61099 3.602-2.484 1.619-3.059 1.115-6.984 1.115-6.984l-10.836-28.188 11.951-28.439-7.883-21.672 10.367-20.305-3.816-0.215-9.035 11.52-6.084-11.305h-8.783l-9.721 14.652-11.52-15.084h-6.517l-11.088 14.652-8.1-14.904-8.136-0.217-11.268 14.904-8.352-14.004-2.7 0.217zm67.68 145.55c1.439-0.35901 2.195-1.08 2.268-2.016 0.037003-0.97299-0.467-3.455-2.051-3.852-1.693-0.54098-6.336-0.75601-8.102 0.89999-1.871 1.619-3.455 6.227-2.951 8.82 0.39601 2.447 2.879 5.146 5.652 6.299 2.844 1.08 7.199 1.621 10.836 0.21698 3.455-1.656 7.848-5.76 10.115-9.252 2.16-3.564 2.701-8.316 3.133-11.484 0.467-3.275 0.539-5.76-0.61301-7.451-1.402-1.766-5.291-3.025-7.234-2.953-1.945 0-3.492 0.936-4.5 2.953l-3.854-3.17c-0.107 2.881-0.646 5.365-2.016 7.453-1.367 1.98-3.275 3.564-5.867 4.752 5.291 0.93597 8.82 2.16 10.584 3.816s0.467 4.391 0 5.867c-0.541 1.332-2.053 2.088-3.133 2.268-1.295 0.18201-3.455-0.71899-3.852-1.15-0.396-0.54001 0.17999-1.261 1.585-2.017zm23.472-67.463l-9.938 17.135c1.873-0.504 3.602-0.646 5.186-0.43201 1.619 0.14499 2.951 0.72101 4.283 1.584-0.145-2.555 0.35899-4.283 1.367-5.184 1.08-0.97299 2.484-1.008 4.752-0.25198-1.87-4.282-3.741-8.567-5.65-12.851z"/>
  </g>
  <path id="path217" d="m127.62 299.04c0.18-0.504 4.248 5.291 6.084 7.668 1.584 2.232 2.736 5.076 4.284 5.615 1.584 0.396 5.436-3.889 5.436-3.131-0.17999 0.75601-3.78 6.947-5.652 7.199-1.908-0.071991-3.492-3.816-5.184-6.768-1.837-3.025-5.112-10.117-4.968-10.583z"/>
  <path id="path219" d="m155.59 299.04c0.18001-0.504 4.248 5.291 6.084 7.668 1.691 2.232 2.627 5.076 4.32 5.615 1.619 0.396 5.363-3.889 5.4-3.131-0.18199 0.75601-3.781 6.947-5.652 7.199-1.908-0.071991-3.492-3.816-5.184-6.768-1.835-3.025-5.113-10.117-4.968-10.583z"/>
  <path id="path221" d="m141.62 274.67c0.18001-0.504 4.248 5.293 6.084 7.668 1.584 2.232 2.736 5.076 4.285 5.617 1.619 0.39499 5.363-3.889 5.4-3.133-0.072006 0.75601-3.889 6.947-5.617 7.199-1.8-0.070007-3.528-3.814-5.184-6.768-1.836-3.023-5.113-10.115-4.968-10.583z"/>
  <path id="path223" d="m142.06 327.01c0.17999-0.504 4.248 5.293 6.084 7.668 1.584 2.305 2.736 5.113 4.284 5.652 1.584 0.39603 5.436-3.852 5.436-3.168-0.18001 0.75601-3.779 6.949-5.652 7.201-1.908-0.072021-3.491-3.816-5.184-6.77-1.836-3.022-5.112-10.114-4.968-10.583z"/>
  <path id="path225" d="m119.27 279.89c0.071999-0.396 2.844 3.564 4.032 5.076 1.008 1.439 1.8 3.42 2.808 3.707 1.08 0.21698 3.528-2.555 3.6-2.088-0.144 0.396-2.556 4.68-3.744 4.789-1.26-0.071991-2.304-2.592-3.42-4.5-1.224-2.015-3.384-6.66-3.276-6.984z"/>
  <path id="path227" d="m173.41 279.42c0.071991-0.39499 2.844 3.564 4.031 5.076 1.045 1.439 1.764 3.385 2.844 3.744 1.117 0.21698 3.42-2.557 3.564-2.088-0.071991 0.43201-2.557 4.607-3.707 4.752-1.225-0.107-2.377-2.52-3.457-4.463-1.224-2.052-3.384-6.659-3.275-7.021z"/>
  <path id="path229" d="m159.66 260.01c0.071991-0.39502 2.844 3.564 4.031 5.076 1.008 1.441 1.801 3.385 2.809 3.744 1.08 0.21698 3.527-2.555 3.6-2.088-0.145 0.43201-2.557 4.609-3.744 4.752-1.26-0.107-2.305-2.52-3.42-4.463-1.225-2.052-3.385-6.66-3.276-7.021z"/>
  <path id="path231" d="m131.22 259.37c0.072006-0.324 2.844 3.492 4.032 5.039 1.044 1.439 1.764 3.385 2.844 3.744 1.044 0.21701 3.528-2.557 3.564-2.088-0.144 0.43201-2.556 4.607-3.744 4.752-1.26-0.107-2.304-2.52-3.42-4.465-1.225-2.088-3.384-6.551-3.276-6.982z"/>
  <path id="path233" d="m118.58 330.22c0.071999-0.324 2.844 3.492 4.032 5.039 1.044 1.441 1.764 3.385 2.844 3.744 1.116 0.21701 3.42-2.555 3.564-2.088-0.071991 0.43201-2.556 4.607-3.708 4.752-1.224-0.107-2.376-2.52-3.456-4.463-1.223-2.087-3.383-6.552-3.276-6.984z"/>
  <path id="path235" d="m172.98 332.01c0.070007-0.39502 2.844 3.564 4.031 5.076 1.008 1.441 1.801 3.42 2.809 3.709 1.115 0.215 3.42-2.557 3.563-2.088-0.069992 0.396-2.555 4.68-3.707 4.787-1.26-0.071991-2.305-2.592-3.42-4.5-1.225-2.015-3.385-6.66-3.276-6.984z"/>
  <path id="path237" d="m112.07 307.82c-0.144 0.72101 1.008 7.74 2.916 7.453 1.908-0.54102 8.208-9.182 8.352-9.938-0.144-0.71902-6.192 5.148-8.136 5.652-2.053 0.29001-3.096-3.816-3.132-3.167z"/>
  <path id="path239" d="m183.56 300.16c1.295 0.828 8.496 10.691 8.818 11.953 0.18199 1.078-6.264-3.025-7.668-4.969-1.546-2.088-2.446-7.847-1.15-6.984z"/>
  <path id="path241" d="m184.03 349.58c-0.61101-0.143-5.543 1.477-6.336 4.033-0.828 2.375 1.045 10.402 1.584 10.619 0.396 0.035004 0.57599-7.271 1.369-9.721 0.791-2.592 3.815-4.752 3.383-4.931z"/>
  <path id="path243" d="m123.34 350.23c0.756 0.504 3.6 4.213 4.068 6.119 0.324 1.766-0.756 4.934-1.584 4.5-0.756-0.504-2.88-5.76-3.168-7.451-0.504-1.943-0.143-3.6 0.684-3.168z"/>
  <g stroke-width=".036" stroke-miterlimit="10" stroke="#000">
   <path id="path245" d="m152.22 345.74c10.832 0 19.621 10.049 19.621 22.428 0 12.381-8.789 22.428-19.621 22.428-10.829 0-19.619-10.047-19.619-22.428 0-12.379 8.79-22.428 19.619-22.428"/>
   <path id="path247" fill="#ff007f" d="m151.98 347.74c9.598 0 17.387 9.049 17.387 20.195 0 11.148-7.789 20.197-17.387 20.197-9.599 0-17.389-9.049-17.389-20.197 0.000992-11.146 7.79-20.195 17.389-20.195"/>
  </g>
  <path id="path249" d="m152.48 235.14h-71.875c-0.795 0-1.44 0.63599-1.44 1.422v18.107c0 0.785 0.645 1.422 1.44 1.422h143.75c0.795 0 1.439-0.63699 1.439-1.422v-18.107c0-0.78601-0.64502-1.422-1.439-1.422h-71.873z"/>
  <path id="path251" d="m152.48 212.21h-75.583c-0.79501 0-1.44 0.63699-1.44 1.422v22.716c0 0.786 0.645 1.422 1.44 1.422h151.16c0.795 0 1.439-0.63699 1.439-1.422v-22.716c0-0.785-0.64502-1.422-1.439-1.422h-75.582z" stroke="#000" stroke-miterlimit="10" stroke-width=".036"/>
  <path id="path253" fill="#fff" d="m152.5 213.5h-74.502c-0.785 0-1.422 0.57199-1.422 1.278v20.412c0 0.70601 0.637 1.278 1.422 1.278h149c0.785 0 1.422-0.57199 1.422-1.278v-20.412c0-0.70601-0.63699-1.278-1.422-1.278h-74.502z"/>
  <path id="path255" d="m88.956 214.69h-9.144c-0.795 0-1.44 0.63701-1.44 1.422v16.776c0 0.78499 0.645 1.422 1.44 1.422h18.288c0.795 0 1.44-0.63701 1.44-1.422v-16.776c0-0.785-0.645-1.422-1.44-1.422h-9.144z"/>
  <path id="path257" d="m215.28 214.69h-9.145c-0.795 0-1.439 0.63701-1.439 1.422v16.776c0 0.78499 0.64499 1.422 1.439 1.422h18.289c0.795 0 1.439-0.63701 1.439-1.422v-16.776c0-0.785-0.645-1.422-1.439-1.422h-9.144z"/>
  <path id="path259" fill="url(#svg_2)" d="m97.236 251.56c0.54-0.86299 1.476-2.088 2.664-3.816 1.188-1.908 3.132-4.032 4.464-6.66 1.296-2.592 2.16-5.436 3.024-8.676h90.54c1.08 3.06 2.375 5.58 3.744 8.1 1.367 2.34 3.24 4.392 4.5 6.3 1.152 1.836 1.908 3.42 2.412 4.752h-111.35z"/>
  <path id="path261" d="m152.35 207.82h-48.492c-0.795 0-1.44 0.63699-1.44 1.422v27.576c0 0.785 0.645 1.422 1.44 1.422h96.984c0.79501 0 1.439-0.63699 1.439-1.422v-27.576c0-0.785-0.645-1.422-1.439-1.422h-48.492z"/>
  <path id="path263" fill="url(#svg_2)" d="m152.42 208.75h-47.376c-0.77499 0-1.404 0.588-1.404 1.314v25.56c0 0.726 0.629 1.314 1.404 1.314h94.751c0.77501 0 1.404-0.588 1.404-1.314v-25.56c0-0.726-0.629-1.314-1.404-1.314h-47.375z"/>
  <g fill="#a12161">
   <path id="path265" d="m132.35 217.79h-0.558c-0.795 0-1.44 0.63699-1.44 1.422v23.544c0 0.78499 0.645 1.422 1.44 1.422h1.116c0.795 0 1.44-0.63701 1.44-1.422v-23.544c0-0.785-0.645-1.422-1.44-1.422h-0.558z"/>
   <path id="path267" d="m142.25 217.79h-0.558c-0.79501 0-1.44 0.63699-1.44 1.422v23.544c0 0.78499 0.64499 1.422 1.44 1.422h1.116c0.795 0 1.44-0.63701 1.44-1.422v-23.544c0-0.785-0.645-1.422-1.44-1.422h-0.558z"/>
   <path id="path269" d="m151.94 217.79h-0.55901c-0.79399 0-1.439 0.63699-1.439 1.422v23.544c0 0.78499 0.645 1.422 1.439 1.422h1.117c0.795 0 1.439-0.63701 1.439-1.422v-23.544c0-0.785-0.645-1.422-1.439-1.422h-0.558z"/>
   <path id="path271" d="m162.09 217.79h-0.55899c-0.79501 0-1.439 0.63699-1.439 1.422v23.544c0 0.78499 0.645 1.422 1.439 1.422h1.117c0.795 0 1.439-0.63701 1.439-1.422v-23.544c0-0.785-0.645-1.422-1.439-1.422h-0.558z"/>
   <path id="path273" d="m171.88 217.79h-0.55699c-0.795 0-1.441 0.63699-1.441 1.422v23.544c0 0.78499 0.64601 1.422 1.441 1.422h1.115c0.795 0 1.439-0.63701 1.439-1.422v-23.544c0-0.785-0.645-1.422-1.439-1.422h-0.558z"/>
   <path id="path275" d="m181.31 217.79h-0.55899c-0.795 0-1.439 0.63699-1.439 1.422v23.544c0 0.78499 0.645 1.422 1.439 1.422h1.115c0.795 0 1.441-0.63701 1.441-1.422v-23.544c0-0.785-0.64601-1.422-1.441-1.422h-0.556z"/>
   <path id="path277" d="m191.46 217.79h-0.55699c-0.795 0-1.441 0.63699-1.441 1.422v23.544c0 0.78499 0.64601 1.422 1.441 1.422h1.115c0.795 0 1.439-0.63701 1.439-1.422v-23.544c0-0.785-0.645-1.422-1.439-1.422h-0.558z"/>
  </g>
  <g stroke-width=".036" stroke-miterlimit="10" stroke="#000">
   <path id="path279" d="m153.63 247.74h-59.507c-0.885 0-1.602 0.63701-1.602 1.422v1.225c0 0.785 0.717 1.422 1.602 1.422h119.02c0.88501 0 1.604-0.63699 1.604-1.422v-1.225c0-0.78499-0.71899-1.422-1.604-1.422h-59.508z"/>
   <path id="path281" d="m150.95 407.65c-1.224 0.97299-2.196 2.377-2.916 4.645-0.936 2.123-1.98 4.967-1.728 8.387 0.28799 3.385 1.368 7.273 3.384 11.809l0.252 10.26c-2.052 2.088-3.384 4.428-4.14 7.309-0.756 2.771-0.756 6.084-0.396 9.648 0.21599 3.492 0.79199 8.82 2.016 11.555 1.152 2.629 2.916 3.996 5.149 4.248 2.195-0.25198 3.959-1.619 5.146-4.248 1.152-2.734 1.693-8.063 2.018-11.555 0.287-3.564 0.252-6.877-0.396-9.648-0.793-2.881-2.125-5.221-4.141-7.309l0.252-10.26c1.98-4.535 3.061-8.424 3.385-11.809 0.145-3.42-0.89999-6.264-1.729-8.387-0.791-2.268-1.764-3.672-2.916-4.645h-3.24z"/>
   <g fill="#bfbfbf">
    <path id="path283" d="m152.46 408.83c1.969 0 3.564 5.227 3.564 11.664 0 6.439-1.596 11.664-3.564 11.664-1.966 0-3.563-5.225-3.563-11.664 0-6.438 1.597-11.664 3.563-11.664"/>
    <path id="path285" d="m152.58 446.64c3.258 0 5.904 5.758 5.904 12.852s-2.646 12.852-5.904 12.852c-3.259 0-5.904-5.758-5.904-12.852s2.645-12.852 5.904-12.852"/>
   </g>
   <path id="path287" d="m148.54 454.81c1.08-1.367 4.896-4.031 5.904-4.5 0.756-0.43201 0.504 1.188-0.61101 2.375-1.152 1.225-4.896 4.285-5.796 4.754-0.866 0.28699-0.649-1.514 0.50299-2.629z"/>
   <path id="path289" d="m148.79 459.64c1.332-1.621 5.941-4.969 7.164-5.473 1.008-0.46698 0.46901 1.369-0.791 2.881-1.441 1.475-5.904 5.256-6.984 5.795-1.045 0.25198-0.793-1.656 0.61099-3.203z"/>
   <path id="path291" d="m150.19 464.6c1.08-1.332 4.896-4.139 5.904-4.535 0.791-0.396 0.39601 1.152-0.648 2.412-1.115 1.225-4.931 4.283-5.76 4.752-0.864 0.28702-0.64801-1.512 0.504-2.629z"/>
   <path id="path293" d="m10.583 381.37c-1.476 0.46698-2.664 1.475-3.42 2.736-0.9 1.295-1.404 3.455-1.368 4.967 0.036 1.369 0.648 2.377 1.836 3.168-1.152 1.477-1.908 2.916-2.268 4.32-0.396 1.439-0.396 2.699 0 4.068-1.116 1.225-1.728 2.375-1.836 3.852-0.18 1.367 0.18 2.881 0.936 4.535-0.936 0.50598-1.62 1.838-2.052 3.854-0.54 1.943-0.792 1.332-0.9 8.172-0.18 6.768-0.18 24.875 0 32.4 0.036 7.344 0.072 8.639 0.684 12.238 0.648 3.602 1.512 7.705 3.168 9.541 1.584 1.801 3.528 2.305 6.12 1.367 0.288 1.836 1.548 3.492 3.636 4.969 2.088 1.512 2.052 2.771 9.036 3.637 7.02 0.68399 17.604 0.79098 32.436 0.46698 0.035999-10.295-0.071999-20.807-0.468-31.967-0.432-11.27-1.152-22.609-2.016-34.705 0.684-3.061 1.044-5.508 0.684-7.488-0.252-2.051-1.224-3.348-2.52-4.283 0.18-2.592 0.18-4.68 0-6.121-0.18-1.512-0.756-2.375-1.332-2.734 0.756-2.449 1.008-4.357 0.9-5.869-0.216-1.512-0.828-2.627-1.836-3.203-6.156 0.57599-11.772 0.828-16.992 0.46701-5.328-0.43201-10.512-1.08-14.292-2.482-3.707-1.406-6.515-3.422-8.136-5.906z"/>
   <path id="path295" fill="url(#svg_7)" d="m50.939 418.56c1.296 9.539 2.196 19.26 2.7 30.133 0.468 10.836 0.54 21.852 0.216 34.02-9.216-0.17999-16.416-0.289-21.744-0.46899-5.292-0.18002-7.524-0.215-10.188-0.68402-2.736-0.54098-4.86-1.439-6.372-2.699-1.692-1.477-2.772-3.277-3.384-5.689-2.52 1.225-4.536 1.045-5.904-0.68399-1.512-1.729-2.016-4.896-2.484-9.504-0.576-4.787-0.576-11.557-0.684-18.359-0.216-6.912-0.756-15.912-0.216-21.996 0.504-5.977 1.584-10.584 3.384-13.824-0.936-2.016-1.26-3.637-1.116-5.004 0.108-1.404 0.828-2.412 2.016-3.168-0.72-1.188-0.864-2.52-0.432-3.852 0.324-1.332 1.224-2.809 2.7-4.285-1.08-1.764-1.656-3.313-1.584-4.787 0-1.549 0.648-2.773 1.8-4.068 2.016 2.844 5.076 4.859 9.324 6.336 4.212 1.367 11.016 1.871 16.092 2.053 4.968 0.107 9.576-0.396 13.824-1.369 0.612 0.504 1.008 1.369 0.9 2.736-0.144 1.332-0.504 3.023-1.368 5.221 1.152 1.043 1.908 2.23 2.268 3.852 0.252 1.584 0.108 3.348-0.432 5.436 1.8 1.439 2.772 2.881 2.916 4.752 0.036999 1.726-0.575 3.742-2.232 5.902z"/>
   <path id="path297" d="m10.116 392.93c3.708 1.584 7.416 2.773 11.556 3.854 4.068 0.936 8.496 2.016 12.708 2.268 4.14 0.17999 8.1-0.071991 12.024-0.89999-3.852 0.539-8.676 0.43198-14.76-0.46902-6.156-0.89899-13.141-2.483-21.528-4.753z"/>
   <path id="path299" d="m9.216 401.78c5.544 3.455 11.592 5.543 18.144 6.551 6.516 0.97302 13.536 0.57602 21.06-0.89999-7.236 0.86499-14.04 0.793-20.844-0.215s-13.284-3.023-19.728-5.904l1.368 0.468z"/>
   <path id="path301" d="m48.888 416.51c-10.548 1.693-19.188 2.018-26.064 1.117-6.984-0.93799-11.916-3.24-15.192-6.768 3.744 2.195 8.892 3.779 15.876 4.752 6.911 0.86401 15.228 1.296 25.38 0.89902z"/>
   <path id="path303" d="m288.94 381.37c1.477 0.46698 2.557 1.475 3.385 2.736 0.82797 1.295 1.332 3.455 1.367 4.967-0.071991 1.369-0.72098 2.377-1.801 3.168 1.117 1.477 1.873 2.916 2.27 4.32 0.35898 1.439 0.35898 2.699 0 4.068 1.008 1.225 1.656 2.375 1.799 3.852 0.10901 1.367-0.143 2.881-0.89798 4.535 0.86298 0.50598 1.547 1.838 2.051 3.854 0.43198 1.943 0.68399 1.332 0.89999 8.172 0.071991 6.768 0.071991 24.875 0 32.4-0.14499 7.344-0.14499 8.639-0.68399 12.238-0.75601 3.602-1.584 7.705-3.168 9.541-1.621 1.801-3.564 2.305-6.121 1.367-0.35901 1.836-1.475 3.492-3.635 4.969-2.125 1.512-2.232 2.771-9.072 3.637-7.092 0.68399-17.568 0.79098-32.4 0.46698-0.145-10.295 0-20.807 0.43199-31.967 0.39601-11.27 1.08-22.609 2.053-34.705-0.793-3.061-0.97301-5.508-0.68401-7.488 0.252-2.051 1.08-3.348 2.482-4.283-0.252-2.592-0.252-4.68 0-6.121 0.18199-1.512 0.68599-2.375 1.369-2.734-0.793-2.449-1.045-4.357-0.89999-5.869 0.107-1.512 0.756-2.627 1.801-3.203 6.191 0.57599 11.771 0.828 17.027 0.46701 5.221-0.43201 10.439-1.08 14.256-2.482 3.778-1.406 6.407-3.422 8.171-5.906z"/>
   <path id="path305" fill="url(#svg_5)" d="m248.58 418.56c-1.369 9.539-2.268 19.26-2.701 30.133-0.539 10.836-0.576 21.852-0.252 34.02 9.252-0.17999 16.381-0.289 21.781-0.46899 5.219-0.18002 7.416-0.215 10.188-0.68402 2.629-0.54098 4.752-1.439 6.371-2.699 1.656-1.477 2.736-3.277 3.385-5.689 2.484 1.225 4.5 1.045 5.904-0.68399s1.908-4.896 2.484-9.504c0.46701-4.787 0.504-11.557 0.68402-18.359 0.107-6.912 0.64798-15.912 0.21698-21.996-0.54098-5.977-1.621-10.584-3.385-13.824 0.89999-2.016 1.225-3.637 1.115-5.004-0.17999-1.404-0.86301-2.412-2.051-3.168 0.68399-1.188 0.79098-2.52 0.46698-3.852-0.39499-1.332-1.295-2.809-2.699-4.285 1.043-1.764 1.619-3.313 1.584-4.787-0.036987-1.549-0.64801-2.773-1.836-4.068-1.98 2.844-5.076 4.859-9.289 6.336-4.318 1.367-11.123 1.871-16.092 2.053-5.004 0.107-9.611-0.396-13.824-1.369-0.646 0.504-1.043 1.369-0.898 2.736 0 1.332 0.539 3.023 1.332 5.221-1.225 1.043-1.98 2.23-2.27 3.852-0.287 1.584-0.17999 3.348 0.46901 5.436-1.908 1.439-2.844 2.881-2.951 4.752-0.145 1.726 0.61099 3.742 2.267 5.902z"/>
   <path id="path307" d="m289.4 392.93c-3.709 1.584-7.525 2.773-11.592 3.854-4.178 0.936-8.533 2.016-12.672 2.268-4.248 0.17999-8.029-0.071991-12.025-0.89999 3.744 0.539 8.604 0.43198 14.725-0.46902 6.084-0.89899 13.176-2.483 21.564-4.753z"/>
   <path id="path309" d="m290.3 401.78c-5.578 3.455-11.627 5.543-18.143 6.551-6.66 0.97302-13.5 0.57602-21.096-0.89999 7.164 0.86499 14.076 0.793 20.879-0.215 6.84-1.008 13.285-3.023 19.729-5.904l-1.369 0.468z"/>
   <path id="path311" d="m250.63 416.51c10.514 1.693 19.152 2.018 26.064 1.117 6.949-0.93799 11.881-3.24 15.191-6.768-3.814 2.195-8.928 3.779-15.875 4.752-6.984 0.86401-15.263 1.296-25.38 0.89902z"/>
  </g>
  <path id="path313" d="m112.91 217.5h-0.648c-0.924 0-1.674 0.645-1.674 1.44v24.048c0 0.795 0.75 1.44 1.674 1.44h1.296c0.925 0 1.674-0.645 1.674-1.44v-24.048c0-0.795-0.75-1.44-1.674-1.44h-0.648z"/>
  <path id="path315" fill="#bfbfbf" d="m112.88 217.79h-0.558c-0.795 0-1.44 0.63699-1.44 1.422v23.544c0 0.78499 0.645 1.422 1.44 1.422h1.116c0.79501 0 1.44-0.63701 1.44-1.422v-23.544c0-0.785-0.645-1.422-1.44-1.422h-0.558z"/>
  <path id="path317" d="m191.46 217.5h-0.646c-0.926 0-1.674 0.645-1.674 1.44v24.048c0 0.795 0.748 1.44 1.674 1.44h1.295c0.926 0 1.674-0.645 1.674-1.44v-24.048c0-0.795-0.748-1.44-1.674-1.44h-0.649z"/>
  <path id="path319" fill="#bfbfbf" d="m191.43 217.79h-0.55899c-0.795 0-1.439 0.63699-1.439 1.422v23.544c0 0.78499 0.64499 1.422 1.439 1.422h1.117c0.795 0 1.439-0.63701 1.439-1.422v-23.544c0-0.785-0.645-1.422-1.439-1.422h-0.55801z"/>
  <path id="path321" d="m181.35 217.5h-0.64801c-0.924 0-1.674 0.645-1.674 1.44v24.048c0 0.795 0.75 1.44 1.674 1.44h1.297c0.92401 0 1.674-0.645 1.674-1.44v-24.048c0-0.795-0.75-1.44-1.674-1.44h-0.64899z"/>
  <path id="path323" fill="#bfbfbf" d="m181.31 217.79h-0.55899c-0.795 0-1.439 0.63699-1.439 1.422v23.544c0 0.78499 0.645 1.422 1.439 1.422h1.115c0.795 0 1.441-0.63701 1.441-1.422v-23.544c0-0.785-0.64601-1.422-1.441-1.422h-0.556z"/>
  <path id="path325" d="m171.94 217.5h-0.666c-0.92401 0-1.674 0.645-1.674 1.44v24.048c0 0.795 0.75 1.44 1.674 1.44h1.332c0.924 0 1.674-0.645 1.674-1.44v-24.048c0-0.795-0.75-1.44-1.674-1.44h-0.666z"/>
  <path id="path327" fill="#bfbfbf" d="m171.88 217.79h-0.55699c-0.795 0-1.441 0.63699-1.441 1.422v23.544c0 0.78499 0.64601 1.422 1.441 1.422h1.115c0.795 0 1.439-0.63701 1.439-1.422v-23.544c0-0.785-0.645-1.422-1.439-1.422h-0.558z"/>
  <path id="path329" d="m161.82 217.5h-0.666c-0.92601 0-1.674 0.645-1.674 1.44v24.048c0 0.795 0.748 1.44 1.674 1.44h1.332c0.92401 0 1.674-0.645 1.674-1.44v-24.048c0-0.795-0.75-1.44-1.674-1.44h-0.66598z"/>
  <path id="path331" fill="#bfbfbf" d="m161.78 217.79h-0.539c-0.795 0-1.441 0.63699-1.441 1.422v23.544c0 0.78499 0.64601 1.422 1.441 1.422h1.08c0.795 0 1.439-0.63701 1.439-1.422v-23.544c0-0.785-0.645-1.422-1.439-1.422h-0.541z"/>
  <path id="path333" d="m152.01 217.5h-0.648c-0.924 0-1.674 0.645-1.674 1.44v24.048c0 0.795 0.75 1.44 1.674 1.44h1.297c0.924 0 1.674-0.645 1.674-1.44v-24.048c0-0.795-0.75-1.44-1.674-1.44h-0.649z"/>
  <path id="path335" fill="#bfbfbf" d="m151.98 217.79h-0.55901c-0.795 0-1.44 0.63699-1.44 1.422v23.544c0 0.78499 0.645 1.422 1.44 1.422h1.115c0.795 0 1.439-0.63701 1.439-1.422v-23.544c0-0.785-0.645-1.422-1.439-1.422h-0.556z"/>
  <path id="path337" d="m142.38 217.5h-0.666c-0.925 0-1.674 0.645-1.674 1.44v24.048c0 0.795 0.75 1.44 1.674 1.44h1.332c0.925 0 1.674-0.645 1.674-1.44v-24.048c0-0.795-0.75-1.44-1.674-1.44h-0.666z"/>
  <path id="path339" fill="#bfbfbf" d="m142.34 217.79h-0.53999c-0.795 0-1.44 0.63699-1.44 1.422v23.544c0 0.78499 0.645 1.422 1.44 1.422h1.08c0.795 0 1.44-0.63701 1.44-1.422v-23.544c0-0.785-0.645-1.422-1.44-1.422h-0.54001z"/>
  <path id="path341" d="m132.17 217.5h-0.648c-0.925 0-1.674 0.645-1.674 1.44v24.048c0 0.795 0.75 1.44 1.674 1.44h1.296c0.924 0 1.674-0.645 1.674-1.44v-24.048c0-0.795-0.75-1.44-1.674-1.44h-0.64801z"/>
  <path id="path343" fill="#bfbfbf" d="m132.14 217.79h-0.558c-0.795 0-1.44 0.63699-1.44 1.422v23.544c0 0.78499 0.645 1.422 1.44 1.422h1.116c0.795 0 1.44-0.63701 1.44-1.422v-23.544c0-0.785-0.645-1.422-1.44-1.422h-0.558z"/>
  <path id="path345" d="m123.03 217.5h-0.648c-0.925 0-1.674 0.645-1.674 1.44v24.048c0 0.795 0.75 1.44 1.674 1.44h1.296c0.924 0 1.674-0.645 1.674-1.44v-24.048c0-0.795-0.75-1.44-1.674-1.44h-0.648z"/>
  <path id="path347" fill="#bfbfbf" d="m122.99 217.79h-0.55801c-0.795 0-1.44 0.63699-1.44 1.422v23.544c0 0.78499 0.645 1.422 1.44 1.422h1.116c0.795 0 1.44-0.63701 1.44-1.422v-23.544c0-0.785-0.645-1.422-1.44-1.422h-0.558z"/>
  <path id="path349" d="m152.12 216.24h-31.158c-0.815 0-1.476 0.63701-1.476 1.422v10.368c0 0.786 0.661 1.422 1.476 1.422h62.316c0.81601 0 1.477-0.63701 1.477-1.422v-10.368c0-0.786-0.66-1.422-1.477-1.422h-31.158z"/>
  <path id="path351" fill="url(#svg_1)" d="m152.06 216.85h-30.529c-0.79501 0-1.44 0.57201-1.44 1.278v9.324c0 0.70599 0.645 1.278 1.44 1.278h61.056c0.795 0 1.439-0.57201 1.439-1.278v-9.324c0-0.70599-0.645-1.278-1.439-1.278h-30.527z"/>
 </g>
</svg>
